<svg width="1002" height="403" fill="none" xmlns="http://www.w3.org/2000/svg"><path fill-rule="evenodd" clip-rule="evenodd" d="M247.915 244.192h39.746v16.273c-28.97.739-56.645 2.398-81.047 4.883-29.012 3.015-63.643 4.634-99.142 4.634-35.5 0-70.13-1.619-99.142-4.634a69.094 69.094 0 00-4.715-.288 85.301 85.301 0 00-2.156-.036l-.614-6.33 10.084-16.224c29.4 2.431 62.644 3.72 96.579 3.72 40.683 0 80.372-1.853 113.638-5.305a757.823 757.823 0 0126.769-2.289v5.596zm-26.796 24.362c20.011-2.087 42.715-3.508 66.542-4.187v32.067c-28.96.741-56.625 2.399-81.019 4.883-29.009 3.016-63.637 4.634-99.134 4.634-35.496 0-70.124-1.618-99.133-4.634a65.61 65.61 0 00-3.415-.238l-3.081-31.732c31.532 2.942 68.141 4.512 105.593 4.512 40.686 0 80.379-1.853 113.647-5.305zM5.402 305.634l.814 8.383h151.196v18.512c17.477-.781 34.1-1.972 49.202-3.542 12.945-1.318 26.81-2.404 41.301-3.243v-11.727h39.746v-13.68c-23.817.68-46.512 2.1-66.515 4.187-33.266 3.452-72.955 5.305-113.638 5.305-36.08 0-71.377-1.457-102.106-4.195zm152.01 62.866v-31.948c22.703-.875 44.298-2.345 63.707-4.358a758.964 758.964 0 0126.796-2.291v31.812c-14.481.839-28.337 1.924-41.273 3.242-15.109 1.57-31.743 2.762-49.23 3.543zm0 4.023V397h90.503v-31.126a762.61 762.61 0 00-26.769 2.289c-19.416 2.015-41.021 3.485-63.734 4.36zm256.324-4.927c23.177 23.183 54.274 34.775 93.291 34.775 36.282 0 65.664-10.127 88.148-30.381-19.923.973-40.889 1.478-62.126 1.478-40.683 0-80.372-1.853-113.637-5.305a656.808 656.808 0 00-5.676-.567zm457.688 2.882V397h90.503v-23.536c-1.112.003-2.224.004-3.337.004-30.361 0-60.169-1.032-87.166-2.99zm90.503-.892c-1.112.003-2.224.005-3.337.005-30.735 0-60.818-1.214-87.166-3.497v-31.588c27.007 1.959 56.829 2.992 87.203 2.992 1.101 0 2.201-.001 3.3-.004v32.092zm-362.15-1.981c-21.01 1.304-43.686 1.986-66.728 1.986-35.497 0-70.124-1.619-99.133-4.634a885.24 885.24 0 00-24.716-2.159 123.006 123.006 0 01-3.149-3.664c-7.237-8.761-13.375-18.613-18.412-29.557 11.128.7 21.781 1.575 31.763 2.617 33.269 3.451 72.961 5.304 113.647 5.304 31.609 0 62.619-1.118 90.482-3.236-4.619 9.218-10.063 17.598-16.333 25.14a119.795 119.795 0 01-7.421 8.203zm358.85-33.984c1.101 0 2.201-.002 3.3-.005v-19.599h39.743v-4.89a1310.44 1310.44 0 01-43.08.702c-40.683 0-80.372-1.853-113.638-5.305-28.984-3.024-63.621-4.648-99.133-4.648-9.061 0-18.066.106-26.934.313l1.343 13.828h151.196v16.105c26.358 2.284 56.455 3.499 87.203 3.499zm-425.578 0c32.91 0 65.072-1.391 92.703-3.996 3.415-7.46 6.32-15.436 8.715-23.93-27.802 2.454-59.305 3.864-91.722 4.099a54.448 54.448 0 01-1.611 3.148c-7.341 13.07-18.71 19.605-34.107 19.605-15.934 0-27.571-6.714-34.912-20.142a57.1 57.1 0 01-1.995-4.094c-17.949-.89-35.041-2.161-50.708-3.787-12.925-1.348-26.973-2.419-41.721-3.19 2.201 8.5 4.896 16.51 8.086 24.03 16.975.881 33.171 2.096 48.131 3.623 29.011 3.015 63.641 4.634 99.141 4.634zm11.379-27.725c31.477-.308 61.855-1.887 87.754-4.579 1.177-.122 2.362-.242 3.555-.36 2.529-9.943 4.389-20.565 5.582-31.864-27.021 2.612-57.931 4.202-89.989 4.641-1.24 12.92-3.541 23.64-6.902 32.162zm457.242-.753c-13.99.534-28.461.808-43.08.808-35.497 0-70.125-1.618-99.134-4.634-33.265-3.452-72.954-5.304-113.637-5.304-9.175 0-18.3.094-27.312.279l-3.106-31.985c9.996-.265 20.18-.401 30.437-.401 35.515 0 70.155 1.624 99.142 4.648 33.268 3.452 72.961 5.305 113.647 5.305 14.559 0 28.99-.237 43.043-.7v31.984zm-533.237-1.049c-12.122-.724-23.71-1.653-34.517-2.777-17.613-1.797-36.941-3.163-57.235-4.061-2.378-10.068-4.088-20.799-5.13-32.193 16.989.784 33.148 1.958 47.851 3.491 13.306 1.381 27.639 2.506 42.652 3.358 1.125 12.852 3.252 23.579 6.379 32.182zm490.194-34.112c14.606 0 29.065-.274 43.043-.807v-23.687a1310.44 1310.44 0 01-43.08.702c-30.361 0-60.169-1.032-87.166-2.991v.993h-70.362l3.735-6.414c-18.786-1.014-38.74-1.541-58.978-1.541-5.723 0-11.424.042-17.082.125l-13.881 22.332.164 1.688c10.148-.237 20.451-.358 30.818-.358 40.706 0 80.411 1.86 113.647 5.324 29.012 3.015 63.643 4.634 99.142 4.634zm-326.436-4.634c3.138-.327 6.333-.64 9.581-.938.653-7.43 1.026-15.144 1.12-23.141-27.088 2.674-58.184 4.311-90.479 4.78v4.857c-.043 6.736-.291 13.044-.745 18.927 28.885-.464 56.613-2 80.523-4.485zm-171.087-17.127c0 6.932.208 13.425.622 19.479-9.702-.651-19.019-1.437-27.818-2.352-19.185-1.958-40.406-3.403-62.693-4.29-.585-7.619-.879-15.526-.882-23.721 17.439.784 34.021 1.977 49.079 3.548 13.022 1.351 27.028 2.458 41.692 3.304v4.032zm0-8.233a764.654 764.654 0 01-27.188-2.31c-19.44-1.984-40.971-3.442-63.583-4.325v-31.985c17.435.784 34.015 1.977 49.069 3.548 13.025 1.351 27.034 2.457 41.702 3.303v31.769zm91.309 2.163c28.614-.478 56.067-2.009 79.769-4.473 3.509-.364 7.089-.71 10.734-1.038v-31.342c-27.094 2.675-58.199 4.313-90.503 4.782v32.071zm254.693-8.34c-19.672-.947-40.348-1.438-61.287-1.438-4.902 0-9.789.027-14.653.081l19.997-32.174c25.812.118 51.032 1.093 73.81 2.837l-17.867 30.694zm64.318 5.005c26.348 2.283 56.431 3.496 87.166 3.496h1.061l.937-.002c.446 0 .893-.001 1.339-.003v-32.091c-1.099.003-2.199.004-3.3.004-30.374 0-60.196-1.033-87.203-2.992v31.588zm-623.509-4.38v-31.811a758.964 758.964 0 00-26.796 2.291c-19.409 2.013-41.004 3.483-63.707 4.358v31.948c17.487-.782 34.121-1.973 49.23-3.544 12.936-1.317 26.792-2.402 41.273-3.242zm-159.677 7.717l18.589-31.933c-25.695-.013-50.983-.764-74.493-2.19l-18.75 30.169c22.503 2.162 48.08 3.512 74.654 3.954zm19.234-35.81c-25.211 0-49.983-.817-72.616-2.37l14.128-22.73c18.841.862 38.563 1.308 58.524 1.308 5.179 0 10.342-.03 15.478-.09l-13.901 23.881-1.613.001zm99.142-4.634c-15.102 1.57-31.725 2.761-49.202 3.542v-23.645c22.713-.875 44.318-2.345 63.734-4.36a757.823 757.823 0 0126.769-2.289v23.509c-14.491.839-28.356 1.925-41.301 3.243zm163.719-28.011v23.686c22.609.884 44.137 2.341 63.575 4.325a765.15 765.15 0 0027.196 2.31v-23.47c-14.664-.846-28.67-1.952-41.692-3.303-15.058-1.571-31.64-2.764-49.079-3.548zm261.858 28.011c-23.705 2.464-51.161 3.995-79.778 4.473V182.41c32.304-.469 63.409-2.107 90.503-4.782v23.039c-3.643.329-7.219.677-10.725 1.042zm121.379-5.301c25.597.148 50.657 1.031 73.805 2.583l12.931-22.213c-21.738-2.114-46.395-3.465-72.072-3.964l-14.664 23.594zm205.057 9.935c-30.748 0-60.845-1.215-87.203-3.499V179.56c26.997 1.959 56.805 2.991 87.166 2.991 1.113 0 2.225-.002 3.337-.004v23.791c-1.099.003-2.199.005-3.3.005zm-497.523-29.994a764.654 764.654 0 01-27.188-2.31c-19.44-1.984-40.971-3.442-63.583-4.325v-3.94c0-9.741.402-19.071 1.206-27.99 16.994.784 33.156 1.958 47.863 3.492 13.055 1.355 27.098 2.463 41.803 3.31a293.93 293.93 0 00-.101 3.732v28.031zm91.309 2.163c28.614-.478 56.067-2.009 79.769-4.473 3.509-.364 7.089-.71 10.734-1.038v-6.958c0-8.402-.303-16.5-.91-24.295-26.907 2.625-57.714 4.232-89.691 4.694.065 2.531.098 5.126.098 7.785v24.285zm290.39-6.024c-22.295-1.854-46.814-3.049-72.177-3.523l19.565-31.477c19.529.77 38.096 2.047 54.789 3.788 4.92.511 9.98.986 15.163 1.426l-17.34 29.786zm28.621 2.689c26.348 2.283 56.431 3.496 87.166 3.496 1.113 0 2.225-.002 3.337-.005v-32.091c-1.099.002-2.199.004-3.3.004-30.374 0-60.196-1.033-87.203-2.992v31.588zm-623.509-4.38v-31.811a761.422 761.422 0 00-26.796 2.29c-19.409 2.014-41.004 3.484-63.707 4.359v31.948c17.487-.782 34.121-1.973 49.23-3.544 12.936-1.317 26.792-2.402 41.273-3.242zm-122.645 7.741l18.898-32.464a1321.91 1321.91 0 01-36.696.507c-12.353 0-24.614-.171-36.63-.505l-19.4 31.212c17.934.912 36.873 1.385 56.066 1.385 5.953 0 11.881-.045 17.762-.135zm-17.798-35.834c-11.554 0-23.015-.172-34.22-.507l14.563-23.431c6.523.097 13.095.146 19.693.146 40.683 0 80.372-1.853 113.638-5.305a757.823 757.823 0 0126.769-2.289v23.509c-14.491.839-28.356 1.925-41.301 3.243-15.102 1.569-31.725 2.76-49.202 3.542V123.88l-5.64 9.131-5.257 9.031c-12.73.437-25.827.662-39.043.662zm268.082-32.397c-1.558 7.477-2.767 15.311-3.627 23.501 22.027.89 43 2.325 61.981 4.262a765.915 765.915 0 0027.468 2.328c.417-8.572 1.22-16.351 2.41-23.336-15.64-.864-30.561-2.022-44.374-3.455-13.547-1.414-28.329-2.521-43.858-3.3zm256.637 27.763c-23.767 2.47-51.307 4.003-80.006 4.476-.353-8.715-1.117-16.629-2.291-23.741 31.422-.396 61.783-1.898 88.508-4.384 1.39 7.254 2.46 14.83 3.207 22.726-3.192.294-6.333.601-9.418.923zm227.294 0c1.048.109 2.104.216 3.167.321l3.132-5.38 5.64-9.131v15.325c26.358 2.284 56.455 3.499 87.203 3.499l2.075-.002 1.225-.003v-23.792c-1.112.003-2.224.005-3.337.005-40.683 0-80.372-1.853-113.638-5.305-11.85-1.237-24.645-2.239-38.059-2.992l-14.272 22.963c23.87.86 46.573 2.377 66.864 4.492zm-394.933-25.133c-10.717-.686-20.987-1.534-30.636-2.537-17.687-1.805-37.104-3.175-57.493-4.072 2.586-11.299 5.996-21.755 10.229-31.37 11.486.711 22.473 1.607 32.75 2.68 17.975 1.864 37.824 3.262 58.692 4.154-2.133 2.308-4.037 4.969-5.71 7.981-3.354 6.193-5.965 13.914-7.832 23.164zm84.644 1.985c29.771-.414 58.397-1.966 82.986-4.522 1.748-.181 3.514-.358 5.297-.531-2.344-10.933-5.445-21.11-9.303-30.528-28.264 2.291-60.002 3.533-92.45 3.598 2.115 2.454 4.007 5.27 5.676 8.446 3.373 6.334 5.971 14.18 7.794 23.537zm412.731.107c-1.112.003-2.224.005-3.337.005-35.497 0-70.125-1.619-99.134-4.634-15.488-1.607-32.369-2.868-50.095-3.756l18.982-30.54c5.719.462 11.275.974 16.637 1.533 33.268 3.452 72.961 5.305 113.647 5.305 1.101 0 2.201-.002 3.3-.004v32.091zm-714.012-7.871V75.347a759.946 759.946 0 00-26.796 2.29c-32.556 3.378-71.265 5.225-111.036 5.302l-19.868 31.967c5.727.085 11.499.128 17.293.128 35.497 0 70.125-1.619 99.134-4.634 12.936-1.317 26.792-2.403 41.273-3.242zm-41.301-32.727c-27.641 2.872-60.382 4.477-94.116 4.623l14.872-23.93c33.634-.5 65.951-2.269 93.775-5.156a759.547 759.547 0 0126.77-2.29v23.51c-14.491.84-28.356 1.925-41.301 3.243zm195.409-26.057c-5.136 6.887-9.648 14.413-13.535 22.577 15.989.869 31.259 2.035 45.42 3.48 14.864 1.545 31.203 2.723 48.378 3.505 6.437-5 14.505-7.499 24.204-7.499 10.226 0 18.682 2.876 25.368 8.627h1.191c33.138 0 65.518-1.41 93.277-4.05-3.569-8.007-7.713-15.438-12.434-22.293-25.296 1.673-52.835 2.552-80.844 2.552-40.683 0-80.372-1.853-113.637-5.305a721.225 721.225 0 00-17.388-1.594zm559.904 6.894V79.06c-1.099.003-2.199.004-3.3.004-35.499 0-70.13-1.618-99.142-4.633a863.63 863.63 0 00-28.565-2.474l13.689-22.025.342.036c33.266 3.452 72.955 5.304 113.638 5.304 1.113 0 2.226 0 3.338-.004zm-350.96-6.623c-24.039 1.8-50.724 2.75-77.919 2.75-35.497 0-70.124-1.619-99.133-4.634a902.444 902.444 0 00-28.732-2.447c.118-.145.235-.29.354-.433l.245-.299c9.642-11.6 20.884-20.85 33.725-27.753 28.644 2.272 60.77 3.474 93.541 3.474 15.233 0 30.326-.26 44.995-.766 10.956 6.61 20.675 15.047 29.155 25.314a126.13 126.13 0 013.769 4.794zm350.96 2.745c-1.112.003-2.225.005-3.338.005-35.497 0-70.125-1.619-99.134-4.634-3.962-.411-8.015-.8-12.15-1.165l18.467-29.712c28.47 2.236 60.345 3.419 92.854 3.419 1.101 0 2.201-.002 3.301-.005V51.39zm-714.012-7.87V11.706a760.03 760.03 0 00-26.798 2.291c-21.492 2.23-45.665 3.793-71.056 4.62L129.822 51.18c27.548-.531 53.932-2.041 76.819-4.42 12.936-1.318 26.793-2.403 41.274-3.242zm-41.303-32.728c-16.481 1.713-34.777 2.975-54.015 3.745l4.815-7.747v-.806h90.503V7.55c-14.492.839-28.357 1.925-41.303 3.243zm326.436 4.633c-30.21 0-59.791-1.172-85.815-3.38C464.389 4.426 484.142.614 506.49.614c24.81 0 46.42 4.726 64.83 14.177-12.488.42-25.322.635-38.272.635zm425.578 0c1.101 0 2.201-.001 3.301-.004V5.984h-90.503v.806l-3.026 4.868c27.068 2.458 58.297 3.767 90.228 3.767z" fill="#1B9BED"/></svg>