<svg width="125" height="36" fill="none" xmlns="http://www.w3.org/2000/svg"><path d="M38.106 0C42.764.045 47.3 1.385 51.13 3.849c3.328 2.18 7.299 3.35 11.37 3.35 4.071 0 8.043-1.17 11.37-3.35C77.68 1.344 82.234 0 86.901 0c4.669 0 9.222 1.344 13.033 3.848 3.327 2.18 7.299 3.35 11.37 3.35 4.071 0 8.042-1.17 11.369-3.35a1.608 1.608 0 011.667.001c.163.102.304.233.413.385.216.309.294.684.217 1.045-.078.361-.305.68-.633.887C120.523 8.66 115.971 10 111.305 10s-9.218-1.34-13.033-3.834c-3.324-2.186-7.297-3.36-11.37-3.36-4.072 0-8.045 1.174-11.37 3.36C71.719 8.66 67.167 10 62.5 10s-9.218-1.34-13.033-3.834c-3.324-2.186-7.297-3.36-11.37-3.36-4.072 0-8.045 1.174-11.369 3.36C22.913 8.66 18.361 10 13.695 10 9.03 10 4.477 8.66.662 6.166a1.405 1.405 0 01-.633-.887c-.077-.361 0-.736.217-1.045.11-.152.25-.283.413-.385.164-.102.348-.173.54-.209a1.61 1.61 0 011.127.208c3.327 2.18 7.298 3.35 11.37 3.35 4.07 0 8.042-1.17 11.369-3.35C28.9 1.386 33.443.046 38.105.001zm.002 26c4.658.044 9.194 1.384 13.024 3.848 3.326 2.18 7.297 3.35 11.368 3.35 4.07 0 8.042-1.17 11.368-3.35 3.815-2.496 8.367-3.835 13.032-3.835 4.666 0 9.217 1.34 13.032 3.835 3.327 2.18 7.298 3.35 11.369 3.35 4.07 0 8.041-1.17 11.368-3.35.331-.205.736-.28 1.126-.207.39.072.733.286.953.593.221.307.301.683.223 1.046-.078.362-.308.68-.639.886C120.518 34.66 115.966 36 111.301 36c-4.666 0-9.217-1.34-13.032-3.834-3.324-2.186-7.296-3.36-11.369-3.36-4.072 0-8.044 1.174-11.368 3.36C71.717 34.66 67.165 36 62.5 36c-4.666 0-9.217-1.34-13.032-3.834-3.324-2.186-7.296-3.36-11.368-3.36-4.073 0-8.045 1.174-11.369 3.36C22.916 34.66 18.365 36 13.7 36 9.034 36 4.482 34.66.668 32.166a1.45 1.45 0 01-.414-.384 1.342 1.342 0 01-.225-.502 1.296 1.296 0 010-.544c.038-.18.114-.35.223-.502.109-.152.25-.283.413-.385a1.611 1.611 0 011.666-.002c3.327 2.18 7.298 3.35 11.368 3.35 4.071 0 8.042-1.17 11.369-3.35 3.836-2.462 8.378-3.802 13.04-3.847z" opacity=".4" fill="#1B9BED"/></svg>