<svg width="40" height="40" fill="none" xmlns="http://www.w3.org/2000/svg"><circle cx="20" cy="20" r="19" stroke="#043786" stroke-width="2"/><path fill-rule="evenodd" clip-rule="evenodd" d="M17.03 13h5.438a4.532 4.532 0 014.531 4.531v5.438a4.532 4.532 0 01-4.531 4.531H17.03a4.532 4.532 0 01-4.531-4.531V17.53A4.532 4.532 0 0117.03 13zm5.438 13.14a3.175 3.175 0 003.172-3.172v-5.437a3.175 3.175 0 00-3.172-3.172H17.03a3.175 3.175 0 00-3.172 3.172v5.438a3.175 3.175 0 003.172 3.171h5.438z" fill="#043786"/><path fill-rule="evenodd" clip-rule="evenodd" d="M16.12 20.25a3.625 3.625 0 117.25 0 3.625 3.625 0 01-7.25 0zm1.36 0a2.269 2.269 0 002.265 2.266 2.269 2.269 0 002.266-2.266 2.268 2.268 0 00-2.266-2.266 2.268 2.268 0 00-2.265 2.266z" fill="#043786"/><circle cx="23.645" cy="16.201" fill="#043786" r=".483"/></svg>