<svg width="40" height="40" fill="none" xmlns="http://www.w3.org/2000/svg"><circle cx="20" cy="20" r="20" fill="#1B9BED"/><g clip-path="url(#clip0)"><path d="M29.43 24.133l-4.376-1.875a.938.938 0 00-1.093.27l-1.938 2.367a14.479 14.479 0 01-6.921-6.922l2.367-1.937a.936.936 0 00.27-1.094l-1.876-4.375a.944.944 0 00-1.074-.543l-4.062.938a.938.938 0 00-.727.913C10 21.895 18.121 30 28.125 30a.937.937 0 00.914-.726l.938-4.063a.949.949 0 00-.548-1.078z" fill="#FEFEFE"/></g><defs><clipPath id="clip0"><path fill="#fff" transform="translate(10 10)" d="M0 0h20v20H0z"/></clipPath></defs></svg>