<svg width="40" height="40" fill="none" xmlns="http://www.w3.org/2000/svg"><circle cx="20" cy="20" r="20" fill="#1B9BED"/><g clip-path="url(#clip0)" fill-rule="evenodd" clip-rule="evenodd" fill="#FEFEFE"><path d="M12.896 27.431c0 .707-.588 1.28-1.313 1.28h-.997c-.724 0-1.312-.573-1.312-1.28V11.318c0-.705.59-1.28 1.312-1.28h.997c.726 0 1.313.575 1.313 1.28V27.43zM27.617 10H15.453a1.265 1.265 0 00-.9.372c-.24.24-.375.566-.377.907v16.113c0 .707.572 1.28 1.277 1.28h1.142v-2.527h9.934v2.526h1.088c.708 0 1.278-.572 1.278-1.279V11.28c0-.705-.57-1.279-1.278-1.279zm-9.735 15.026h-1.274V23.71h1.274v1.316zm0-2.5h-1.274V21.21h1.274v1.316zm0-2.5h-1.274V18.73h1.274v1.296zm2.47 5H19.08V23.71h1.273v1.316zm0-2.5H19.08v-1.335h1.273v1.335zm0-2.5H19.08V18.71h1.273v1.316zm2.47 5H21.55V23.73h1.274v1.296zm0-2.5H21.55V21.23h1.274v1.296zm0-2.5H21.55v-1.335h1.274v1.335zm3.727 1.193v1.308h-2.53V21.22h2.53zm-2.53-1.193V18.7h2.53v1.327h-2.53zm2.53-4.987h-9.94V12.46h9.94v2.578z"/><path d="M25.256 29.961l-.003-2.433h-7.349l.003 2.433h7.349z"/></g><defs><clipPath id="clip0"><path fill="#fff" transform="translate(8 10)" d="M0 0h21v20H0z"/></clipPath></defs></svg>